# xmcd
#
# Track frame offsets: 
#        150
#        15340
#        36865
#        50355
#        62525
#        78795
#        90518
#        106845
#        120638
#        135628
#        147590
#        162978
#
# Disc length: 2394 seconds
#
# Revision: 2
# Processed by: cddbd v1.5.2PL0 Copyright (c) Steve Scherf et al.
# Submitted via: ExactAudioCopy v1.3
#
DISCID=9009580c
DTITLE=Richard Clayderman - Love American Style
DYEAR=1996
DGENRE=Instrumental
TTITLE0=City Of New Orleans
TTITLE1=Grand Canyon Serenade
TTITLE2=Horse And Carriage In Central Park
TTITLE3=Romantic America
TTITLE4=The Streets Of Philadelphia
TTITLE5=River Of No Return
TTITLE6=Radio Heart
TTITLE7=16th Avenue
TTITLE8=American Love Story
TTITLE9=Blue Hawaii
TTITLE10=You Don't Know Love
TTITLE11=Sing
EXTD=
EXTT0=
EXTT1=
EXTT2=
EXTT3=
EXTT4=
EXTT5=
EXTT6=
EXTT7=
EXTT8=
EXTT9=
EXTT10=
EXTT11=
PLAYORDER=
